<?xml version="1.0" encoding="UTF-8"?>
<svg id="Layer_2" xmlns="http://www.w3.org/2000/svg" viewBox="0 0 218.13 43.44">
  <defs>
    <style>
      .cls-1 {
        fill: #071932;
      }
    </style>
  </defs>
  <g id="Layer_1-2" data-name="Layer_1">
    <path class="cls-1" d="M55.7,11.97h-5.87v15.75h3.1v-5.17h2.77c3.04,0,5.38-2.34,5.38-5.28h0c0-2.95-2.34-5.29-5.38-5.29ZM55.7,19.64h-2.77v-4.77h2.77c1.33,0,2.29,1.01,2.29,2.38s-.97,2.38-2.29,2.38ZM66.21,24.74h6.01v2.97h-9.11v-15.75h3.1v12.78ZM79.56,11.96l-5.51,15.75h3.35l.94-2.83h6.28l.94,2.83h3.38l-5.53-15.75h-3.85ZM79.34,21.97l2.16-6.43,2.16,6.43h-4.32ZM87.13,11.97h11.58v2.97h-4.25v12.78h-3.1v-12.78h-4.23v-2.97ZM100.45,11.97h9.4v2.97h-6.3v3.73h6.12v2.97h-6.12v6.07h-3.1v-15.75ZM119.56,11.65c-4.54,0-8.16,3.58-8.16,8.19s3.62,8.19,8.16,8.19,8.19-3.58,8.19-8.19-3.64-8.19-8.19-8.19ZM119.56,24.99c-2.86,0-5.08-2.11-5.08-5.15s2.23-5.17,5.08-5.17,5.08,2.14,5.08,5.17-2.23,5.15-5.08,5.15ZM141.48,17.18c0-2.88-2.34-5.22-5.24-5.22h-6.3v15.75h3.1v-5.47h2.36l3.17,5.47h3.35l-3.49-5.94c1.8-.83,3.04-2.61,3.04-4.59ZM136.23,19.53h-3.19v-4.66h3.19c1.17,0,2.14,1.01,2.14,2.32s-.97,2.34-2.14,2.34ZM155.96,11.97h3.19v15.75h-3.09v-10.21l-4.43,7.31h-.36l-4.43-7.29v10.19h-3.1v-15.75h3.19l4.52,7.45,4.5-7.45ZM166.19,11.96l-5.51,15.75h3.35l.94-2.83h6.28l.94,2.83h3.38l-5.53-15.75h-3.85ZM165.97,21.97l2.16-6.43,2.16,6.43h-4.32ZM186.21,11.97h3.1v15.75h-2.36l-6.75-9.63v9.63h-3.1v-15.75h2.36l6.75,9.6v-9.6ZM194.6,19.84c0,3.04,2.03,5.15,5.11,5.15,1.8,0,3.35-.85,4.09-2.23l2.68,1.55c-1.33,2.25-3.87,3.71-6.77,3.71-4.77,0-8.19-3.6-8.19-8.19h0c0-4.62,3.42-8.19,8.19-8.19,2.88,0,5.42,1.46,6.77,3.71l-2.68,1.55c-.76-1.39-2.29-2.25-4.09-2.25-3.08,0-5.11,2.14-5.11,5.17ZM218.13,24.74v2.97h-9.74v-15.75h9.63v2.97h-6.52v3.35h5.96v2.92h-5.96v3.53h6.63ZM30.36.43h-1.15v-.43h2.8v.43h-1.17v2.93h-.48V.43ZM32.93,3.36h-.48V0h.45l1.12,1.38L35.13,0h.46v3.35h-.5V.75l-1.03,1.3h-.09l-1.04-1.3v2.61ZM18.62,7.48h16.98v26.68h-17.6c-4.59,0-7.9,3.65-7.9,8.4v.88H0c-.02-.29,0-5.55,0-5.64l7.09-7.5v7.2h3.62v-12.13c.81-.32,3.16-1.43,7.27-1.43h6.86v-6.25h-6.23c-4.17,0-7.31,3-7.86,7.1-.02.17-.02.4-.03.58H.02c0-.18.01-.4.02-.58.11-1.67.43-3.28.94-4.8.36-1.07.81-2.1,1.34-3.07.61-1.1,1.33-2.13,2.14-3.07,1.08-1.27,2.35-2.38,3.75-3.31,2.67-1.77,5.84-2.86,9.31-3.05.13,0,.25-.01.39-.02.23,0,.46,0,.7,0ZM10.72,25.38h0s0,0,0,0c0-.01,0,.01,0,0h0Z"/>
  </g>
</svg>